<?xml version="1.0" encoding="utf-8"?><svg width="113" height="104" viewBox="0 0 113 104" xmlns="http://www.w3.org/2000/svg" xmlns:xlink="http://www.w3.org/1999/xlink"><view id="image-faq" viewBox="89 41 16 17"/><svg width="16" height="17" fill="none" viewBox="-1 -1 16 17" x="89" y="41" xmlns="http://www.w3.org/2000/svg"><g clip-path="url(#aa)"><path d="M6.91.499A7.002 7.002 0 0 0 0 7.589c.05 3.86 3.23 6.96 7.09 6.9 3.86-.05 6.96-3.23 6.91-7.09-.05-3.86-3.23-6.95-7.09-6.9Zm-.02 11.26h-.04c-.6-.02-1.01-.46-1-1.04.02-.58.45-1 1.02-1h.03c.61.02 1.03.45 1.01 1.06-.01.58-.43.98-1.02.98Zm2.5-4.97c-.14.2-.45.45-.84.75l-.42.29c-.24.19-.38.36-.43.53-.04.13-.06.16-.07.43v.07H6v-.14c.02-.57.03-.9.27-1.18.37-.43 1.18-.96 1.22-.98.12-.09.21-.19.29-.29.17-.24.25-.42.25-.6 0-.25-.08-.49-.22-.7-.15-.2-.42-.3-.81-.3-.39 0-.66.12-.82.38-.16.26-.25.53-.25.81v.07H4.25v-.07c.04-1.03.41-1.77 1.09-2.2.43-.28.96-.42 1.58-.42.81 0 1.5.2 2.04.59.56.39.84.98.84 1.76a2 2 0 0 1-.41 1.2Z" fill="currentColor"/></g><defs><clipPath id="aa"><path fill="#fff" transform="translate(0 .498)" d="M0 0h14v14H0z"/></clipPath></defs></svg><view id="image-logo" viewBox="0 41 68 63"/><svg width="68" height="63" fill="none" viewBox="-1 -1 68 63" y="41" xmlns="http://www.w3.org/2000/svg"><g clip-path="url(#ba)" fill-rule="evenodd" clip-rule="evenodd"><path d="m25.4 46.004 21.5-21.5c1.8-1.8 4.6-1.8 6.3 0l7.3 7.3c1.8 1.8 1.8 4.6 0 6.3L39 59.704c-1.8 1.8-4.6 1.8-6.3 0l-7.3-7.3c-1.8-1.8-1.8-4.6 0-6.4Z" fill="#1B1A2A"/><path opacity=".5" d="M50.5 39.204c1.8-1.8 1.8-4.6 0-6.3l-6-6-19.1 19.1c-1.8 1.8-1.8 4.6 0 6.3l6 6 19.1-19.1Z" fill="#110F1D"/><path d="m3.5 22.501 20.6-20.7c1.8-1.8 4.6-1.8 6.3 0l7.3 7.3c1.8 1.8 1.8 4.6 0 6.3l-20.6 20.7c-1.8 1.8-4.6 1.8-6.3 0l-7.3-7.3c-1.8-1.7-1.8-4.6 0-6.3Z" fill="#1B1A2A"/><path opacity=".5" d="M37.8 15.501c1.8-1.8 1.8-4.6 0-6.3l-5.5-5.5-18.8 18.8c-1.8 1.8-1.8 4.6 0 6.3l5.5 5.5 18.8-18.8Z" fill="#110F1D"/><path d="m63.6 19.101-5.7 1c-1 .2-1.9-.1-2.6-.8l-11.9-11.9c-2.6-2.6-7-2.6-9.6 0L.2 40.901c-.5.5-.1 1.2.6 1.1l6.2-1c.9-.1 1.8.1 2.4.8l11.8 11.8c3 3 6.9 2.8 9.9-.3l33.1-33.1c.5-.5 0-1.3-.6-1.1Zm-19.3 6.6L29 41.001c-1.5 1.5-4 1.5-5.5 0l-3.3-3.3c-.5-.5-.6-1.4 0-2l15.6-15.6c1.3-1.3 3.5-1.3 4.8 0l3.7 3.7c.5.5.5 1.4 0 1.9Z" fill="#2B2936"/></g><defs><clipPath id="ba"><path fill="#fff" transform="translate(0 .498)" d="M0 0h65.5v60.5H0z"/></clipPath></defs></svg><view id="image-mail" viewBox="68 41 21 17"/><svg width="21" height="17" fill="none" viewBox="-1 -1 21 17" x="68" y="41" xmlns="http://www.w3.org/2000/svg"><g clip-path="url(#ca)"><path d="M19 12.168c0 .41-.12.79-.31 1.12l-6-6.59 5.93-5.1c.24.35.38.78.38 1.23v9.34Zm-9.5-4.28 8.26-7.1a2.41 2.41 0 0 0-1.14-.29H2.37c-.41 0-.79.11-1.13.29l8.26 7.1Zm2.3-.43-1.91 1.65c-.11.09-.25.14-.39.14s-.28-.05-.39-.14L7.2 7.458l-6.07 6.68c.36.23.78.36 1.24.36h14.25c.46 0 .89-.13 1.25-.36l-6.07-6.68ZM.37 1.588c-.23.36-.37.79-.37 1.24v9.33c0 .41.12.79.3 1.12l6-6.6-5.93-5.09Z" fill="currentColor"/></g><defs><clipPath id="ca"><path fill="#fff" transform="translate(0 .498)" d="M0 0h19v14H0z"/></clipPath></defs></svg><view id="image-vector-arrow" viewBox="0 0 113 41"/><svg width="113" height="41" fill="none" viewBox="-1 -1 113 41" xmlns="http://www.w3.org/2000/svg"><g clip-path="url(#da)"><path d="M103.35 11.665c-.701 3.578-1.411 7.147-2.186 11.086 2.436-.32 3.744-1.803 4.262-3.513 1.53-5.065 3.002-10.175 3.957-15.364.55-2.975-1.555-4.48-4.407-3.511-4.754 1.617-9.418 3.47-14.122 5.234-.274.099-.65.192-.774.398-.406.683-.71 1.42-1.06 2.13.615.279 1.285.88 1.846.791 1.883-.297 3.74-.834 5.601-1.279.981-.237 1.952-.474 3.41-.134-.995 1.16-1.95 2.365-3.001 3.462C75.488 33.42 42.718 38.97 15.026 24.744c-3.542-1.818-6.856-4.075-10.284-6.108-1.198-.706-2.432-1.348-3.648-2.026-.244.227-.487.445-.73.673.335.83.436 1.907 1.031 2.445 2.06 1.893 4.174 3.775 6.474 5.357 23.32 15.998 55.123 15.823 79.312-.627 4.614-3.134 8.651-7.121 12.929-10.745.885-.742 1.655-1.62 2.473-2.434.253.123.504.236.757.359l.01.027Z" fill="#fff"/></g><defs><clipPath id="da"><path fill="#fff" transform="scale(1 -1) rotate(-88.522 -1.448 -1.412)" d="M0 0h35.364v109.43H0z"/></clipPath></defs></svg></svg>