<svg width="49" height="40" viewBox="0 0 49 40" fill="none" xmlns="http://www.w3.org/2000/svg"><path d="M16.933 34.327v-1.94a1.148 1.148 0 0 0-1.212-1.225 1.196 1.196 0 0 0-1.086.55 1.135 1.135 0 0 0-1.022-.55 1.022 1.022 0 0 0-.905.459v-.382h-.673v3.088h.68v-1.71a.721.721 0 0 1 .756-.821c.446 0 .672.29.672.814v1.717h.68v-1.71a.728.728 0 0 1 .756-.821c.459 0 .679.29.679.814v1.717h.675Zm3.783-1.542v-1.542h-.679v.375a1.17 1.17 0 0 0-.97-.453 1.617 1.617 0 0 0 0 3.233 1.17 1.17 0 0 0 .97-.452v.375h.673l.006-1.536Zm-2.499 0a.934.934 0 1 1 .938.99.925.925 0 0 1-.944-.99h.006Zm16.868-1.617c.221 0 .44.041.646.123a1.605 1.605 0 0 1 .877.857c.169.414.169.879 0 1.293a1.605 1.605 0 0 1-.877.857 1.83 1.83 0 0 1-1.325 0 1.577 1.577 0 0 1-.87-.857 1.718 1.718 0 0 1 0-1.293 1.579 1.579 0 0 1 .87-.857 1.74 1.74 0 0 1 .672-.132l.007.01Zm0 .647a1.003 1.003 0 0 0-.385.071.91.91 0 0 0-.307.204.95.95 0 0 0-.204.323 1.123 1.123 0 0 0 0 .802.906.906 0 0 0 .51.527 1.051 1.051 0 0 0 1.09-.204.937.937 0 0 0 .204-.323 1.123 1.123 0 0 0 0-.802.938.938 0 0 0-.203-.323.927.927 0 0 0-.324-.204 1.003 1.003 0 0 0-.388-.09l.007.019Zm-10.715.97c0-.97-.602-1.617-1.465-1.617a1.617 1.617 0 1 0 .046 3.233c.46.016.91-.138 1.264-.433l-.324-.498a1.471 1.471 0 0 1-.898.324.857.857 0 0 1-.925-.757h2.292c.01-.08.01-.162.01-.252Zm-2.299-.272a.795.795 0 0 1 .812-.747.766.766 0 0 1 .782.75l-1.594-.003Zm5.128-.485a1.988 1.988 0 0 0-.97-.265c-.369 0-.588.136-.588.362 0 .227.232.265.523.304l.324.045c.672.098 1.08.382 1.08.925s-.518 1.009-1.407 1.009a2.227 2.227 0 0 1-1.335-.401l.323-.524c.297.22.659.334 1.028.324.46 0 .705-.136.705-.376 0-.174-.175-.271-.543-.323l-.323-.045c-.692-.097-1.067-.407-1.067-.912 0-.614.504-.99 1.293-.99.441-.014.878.098 1.258.324l-.301.543Zm3.233-.174h-1.096v1.393c0 .324.11.517.446.517.21-.006.415-.067.595-.174l.194.575a1.58 1.58 0 0 1-.84.24c-.796 0-1.074-.427-1.074-1.145v-1.406h-.627v-.615h.627v-.937h.68v.937h1.095v.615Zm2.325-.692c.163 0 .325.029.478.084l-.207.646a1.092 1.092 0 0 0-.42-.077c-.44 0-.646.284-.646.795v1.73h-.673v-3.088h.666v.375a.912.912 0 0 1 .815-.452l-.013-.013Zm4.65 2.716a.324.324 0 0 1 .222.087.3.3 0 0 1-.1.498.304.304 0 0 1-.123.026.323.323 0 0 1-.29-.188.304.304 0 0 1 .067-.336.324.324 0 0 1 .207-.087h.016Zm0 .546a.229.229 0 0 0 .167-.071.24.24 0 1 0-.34-.336.24.24 0 0 0 0 .323.24.24 0 0 0 .172.071v.013Zm.019-.385c.03-.001.06.008.084.026a.08.08 0 0 1 .029.068.077.077 0 0 1-.023.058.113.113 0 0 1-.068.03l.094.106h-.074l-.088-.107h-.029v.107h-.061v-.297l.136.01Zm-.072.055v.078h.072a.067.067 0 0 0 .038 0 .032.032 0 0 0 0-.03.032.032 0 0 0 0-.028.067.067 0 0 0-.038 0l-.072-.02Z" fill="#A3A1A7"/><path d="M29.462 7.682H19.277v18.303h10.185V7.682Z" fill="#7673C0"/><path d="M19.923 16.836a11.62 11.62 0 0 1 4.446-9.154 11.64 11.64 0 1 0 0 18.304 11.62 11.62 0 0 1-4.446-9.15Z" fill="#EB001B"/><path d="M42.09 24.046v-.362h.152v-.078h-.385v.078h.152v.375l.081-.013Zm.747 0v-.453h-.116l-.136.323-.136-.323h-.12v.453h.084v-.34l.127.294h.087l.126-.294v.343l.084-.003Zm.363-7.211a11.64 11.64 0 0 1-18.83 9.15 11.64 11.64 0 0 0 0-18.303 11.64 11.64 0 0 1 18.833 9.15l-.004.003Z" fill="#00A1DF"/></svg>