<svg width="46" height="30" viewBox="0 0 46 30" fill="none" xmlns="http://www.w3.org/2000/svg"><g clip-path="url(#a)"><path d="M45.318 29.14H0V.351h45.318v28.787Z" fill="#fff"/><path d="M.755 24.461h43.807v3.928H.755v-3.928Z" fill="#F7B600"/><path d="M.755 5.035h43.807V1.107H.755v3.928Zm21.033 3.546-2.196 10.263h-2.655l2.195-10.263h2.656Zm11.17 6.627 1.398-3.854.803 3.854h-2.201Zm2.964 3.636h2.455L36.232 8.58h-2.265c-.511 0-.94.296-1.131.752l-3.984 9.51h2.788l.553-1.532H35.6l.322 1.533Zm-6.931-3.35c.01-2.709-3.745-2.86-3.72-4.07.008-.367.359-.759 1.126-.859.38-.049 1.43-.088 2.618.46l.466-2.178a7.164 7.164 0 0 0-2.484-.453c-2.625 0-4.471 1.394-4.486 3.392-.017 1.478 1.319 2.301 2.324 2.794 1.035.502 1.382.825 1.377 1.275-.008.688-.827.993-1.588 1.004-1.336.021-2.11-.36-2.727-.648l-.482 2.25c.62.284 1.766.532 2.952.544 2.79 0 4.615-1.378 4.623-3.512ZM17.994 8.58l-4.302 10.263h-2.807l-2.118-8.19c-.128-.504-.24-.69-.63-.902-.638-.347-1.693-.671-2.62-.873l.063-.298h4.52c.575 0 1.093.383 1.224 1.046l1.119 5.94 2.761-6.986h2.79Z" fill="#1A1F71"/></g><defs><clipPath id="a"><path fill="#fff" transform="translate(0 .352)" d="M0 0h45.318v28.787H0z"/></clipPath></defs></svg>