<svg width="272" height="60" viewBox="0 0 272 60" fill="none" xmlns="http://www.w3.org/2000/svg"><g filter="url(#a)"><path d="M0 19.528C0 10.4 7.4 3 16.528 3h238.944C264.6 3 272 10.4 272 19.528v23.944C272 52.6 264.6 60 255.472 60H16.528C7.4 60 0 52.6 0 43.472V19.528Z" fill="#030303"/><path d="M0 19.528C0 10.4 7.4 3 16.528 3h238.944C264.6 3 272 10.4 272 19.528v23.944C272 52.6 264.6 60 255.472 60H16.528C7.4 60 0 52.6 0 43.472V19.528Z" fill="url(#b)"/><path d="M0 19.528C0 10.4 7.4 3 16.528 3h238.944C264.6 3 272 10.4 272 19.528v23.944C272 52.6 264.6 60 255.472 60H16.528C7.4 60 0 52.6 0 43.472V19.528Z" fill="url(#c)"/><path d="M0 19.528C0 10.4 7.4 3 16.528 3h238.944C264.6 3 272 10.4 272 19.528v23.944C272 52.6 264.6 60 255.472 60H16.528C7.4 60 0 52.6 0 43.472V19.528Z" fill="url(#d)"/><path d="M0 19.528C0 10.4 7.4 3 16.528 3h238.944C264.6 3 272 10.4 272 19.528v23.944C272 52.6 264.6 60 255.472 60H16.528C7.4 60 0 52.6 0 43.472V19.528Z" fill="url(#e)" fill-opacity=".5"/></g><g filter="url(#f)"><path d="M0 16.528C0 7.4 7.4 0 16.528 0h238.944C264.6 0 272 7.4 272 16.528v22.944C272 48.6 264.6 56 255.472 56H16.528C7.4 56 0 48.6 0 39.472V16.528Z" fill="#030303"/><path d="M0 16.528C0 7.4 7.4 0 16.528 0h238.944C264.6 0 272 7.4 272 16.528v22.944C272 48.6 264.6 56 255.472 56H16.528C7.4 56 0 48.6 0 39.472V16.528Z" fill="url(#g)"/><path d="M0 16.528C0 7.4 7.4 0 16.528 0h238.944C264.6 0 272 7.4 272 16.528v22.944C272 48.6 264.6 56 255.472 56H16.528C7.4 56 0 48.6 0 39.472V16.528Z" fill="url(#h)"/><path d="M0 16.528C0 7.4 7.4 0 16.528 0h238.944C264.6 0 272 7.4 272 16.528v22.944C272 48.6 264.6 56 255.472 56H16.528C7.4 56 0 48.6 0 39.472V16.528Z" fill="url(#i)"/><path d="M0 16.528C0 7.4 7.4 0 16.528 0h238.944C264.6 0 272 7.4 272 16.528v22.944C272 48.6 264.6 56 255.472 56H16.528C7.4 56 0 48.6 0 39.472V16.528Z" fill="url(#j)" fill-opacity=".5"/></g><defs><radialGradient id="b" cx="0" cy="0" r="1" gradientUnits="userSpaceOnUse" gradientTransform="matrix(78.81869 63.23381 -16.92655 21.09835 118.999 -14.813)"><stop offset=".212" stop-color="#181118" stop-opacity=".53"/><stop offset="1"/></radialGradient><radialGradient id="c" cx="0" cy="0" r="1" gradientUnits="userSpaceOnUse" gradientTransform="rotate(7.399 -175.98 419.386) scale(221.297 30.4374)"><stop stop-color="#1864B7"/><stop offset="1" stop-color="#173D66" stop-opacity=".56"/></radialGradient><radialGradient id="d" cx="0" cy="0" r="1" gradientUnits="userSpaceOnUse" gradientTransform="matrix(-9.27271 73.92189 -350.37815 -43.9512 173.091 -4.125)"><stop stop-color="#8528FB"/><stop offset="1" stop-color="#56544A" stop-opacity=".12"/></radialGradient><radialGradient id="e" cx="0" cy="0" r="1" gradientUnits="userSpaceOnUse" gradientTransform="matrix(94.27276 34.7342 -48.0069 130.29643 41.727 25.265)"><stop stop-color="#8371F3"/><stop offset="1" stop-color="#459CEC" stop-opacity="0"/></radialGradient><radialGradient id="g" cx="0" cy="0" r="1" gradientUnits="userSpaceOnUse" gradientTransform="matrix(78.81782 62.1247 -16.5636 21.0143 119 -17.5)"><stop offset=".212" stop-color="#181118" stop-opacity=".53"/><stop offset="1"/></radialGradient><radialGradient id="h" cx="0" cy="0" r="1" gradientUnits="userSpaceOnUse" gradientTransform="matrix(219.45496 28.00005 -3.78575 29.67146 52.545 22.75)"><stop stop-color="#1864B7"/><stop offset="1" stop-color="#173D66" stop-opacity=".88"/></radialGradient><radialGradient id="i" cx="0" cy="0" r="1" gradientUnits="userSpaceOnUse" gradientTransform="matrix(-9.27256 72.62505 -350.1823 -44.7103 173.09 -7)"><stop stop-color="#8528FB"/><stop offset="1" stop-color="#56544A" stop-opacity=".12"/></radialGradient><radialGradient id="j" cx="0" cy="0" r="1" gradientUnits="userSpaceOnUse" gradientTransform="rotate(19.899 -41.486 129.872) scale(100.259 136.708)"><stop stop-color="#8371F3"/><stop offset="1" stop-color="#459CEC" stop-opacity="0"/></radialGradient><filter id="a" x="0" y="3" width="272" height="57" filterUnits="userSpaceOnUse" color-interpolation-filters="sRGB"><feFlood flood-opacity="0" result="BackgroundImageFix"/><feBlend in="SourceGraphic" in2="BackgroundImageFix" result="shape"/><feColorMatrix in="SourceAlpha" values="0 0 0 0 0 0 0 0 0 0 0 0 0 0 0 0 0 0 127 0" result="hardAlpha"/><feOffset/><feGaussianBlur stdDeviation="5.165"/><feComposite in2="hardAlpha" operator="arithmetic" k2="-1" k3="1"/><feColorMatrix values="0 0 0 0 1 0 0 0 0 1 0 0 0 0 1 0 0 0 0.8 0"/><feBlend in2="shape" result="effect1_innerShadow_1_450"/></filter><filter id="f" x="0" y="0" width="272" height="56" filterUnits="userSpaceOnUse" color-interpolation-filters="sRGB"><feFlood flood-opacity="0" result="BackgroundImageFix"/><feBlend in="SourceGraphic" in2="BackgroundImageFix" result="shape"/><feColorMatrix in="SourceAlpha" values="0 0 0 0 0 0 0 0 0 0 0 0 0 0 0 0 0 0 127 0" result="hardAlpha"/><feOffset/><feGaussianBlur stdDeviation="15.495"/><feComposite in2="hardAlpha" operator="arithmetic" k2="-1" k3="1"/><feColorMatrix values="0 0 0 0 1 0 0 0 0 1 0 0 0 0 1 0 0 0 0.3 0"/><feBlend in2="shape" result="effect1_innerShadow_1_450"/></filter></defs></svg>