<svg width="688" height="73" viewBox="0 0 688 73" fill="none" xmlns="http://www.w3.org/2000/svg"><g filter="url(#a)"><path d="M0 23.483C0 12.854 8.616 4.238 19.245 4.238h649.51c10.629 0 19.245 8.616 19.245 19.245v29.321c0 10.629-8.616 19.245-19.245 19.245H19.245C8.616 72.049 0 63.433 0 52.804V23.483Z" fill="#030303"/><path d="M0 23.483C0 12.854 8.616 4.238 19.245 4.238h649.51c10.629 0 19.245 8.616 19.245 19.245v29.321c0 10.629-8.616 19.245-19.245 19.245H19.245C8.616 72.049 0 63.433 0 52.804V23.483Z" fill="url(#b)"/><path d="M0 23.483C0 12.854 8.616 4.238 19.245 4.238h649.51c10.629 0 19.245 8.616 19.245 19.245v29.321c0 10.629-8.616 19.245-19.245 19.245H19.245C8.616 72.049 0 63.433 0 52.804V23.483Z" fill="url(#c)"/><path d="M0 23.483C0 12.854 8.616 4.238 19.245 4.238h649.51c10.629 0 19.245 8.616 19.245 19.245v29.321c0 10.629-8.616 19.245-19.245 19.245H19.245C8.616 72.049 0 63.433 0 52.804V23.483Z" fill="url(#d)"/><path d="M0 23.483C0 12.854 8.616 4.238 19.245 4.238h649.51c10.629 0 19.245 8.616 19.245 19.245v29.321c0 10.629-8.616 19.245-19.245 19.245H19.245C8.616 72.049 0 63.433 0 52.804V23.483Z" fill="url(#e)" fill-opacity=".5"/></g><g filter="url(#f)"><path d="M0 19.245C0 8.616 8.616 0 19.245 0h649.51C679.384 0 688 8.616 688 19.245v29.321c0 10.629-8.616 19.245-19.245 19.245H19.245C8.616 67.81 0 59.195 0 48.566V19.245Z" fill="#030303"/><path d="M0 19.245C0 8.616 8.616 0 19.245 0h649.51C679.384 0 688 8.616 688 19.245v29.321c0 10.629-8.616 19.245-19.245 19.245H19.245C8.616 67.81 0 59.195 0 48.566V19.245Z" fill="url(#g)"/><path d="M0 19.245C0 8.616 8.616 0 19.245 0h649.51C679.384 0 688 8.616 688 19.245v29.321c0 10.629-8.616 19.245-19.245 19.245H19.245C8.616 67.81 0 59.195 0 48.566V19.245Z" fill="url(#h)"/><path d="M0 19.245C0 8.616 8.616 0 19.245 0h649.51C679.384 0 688 8.616 688 19.245v29.321c0 10.629-8.616 19.245-19.245 19.245H19.245C8.616 67.81 0 59.195 0 48.566V19.245Z" fill="url(#i)"/><path d="M0 19.245C0 8.616 8.616 0 19.245 0h649.51C679.384 0 688 8.616 688 19.245v29.321c0 10.629-8.616 19.245-19.245 19.245H19.245C8.616 67.81 0 59.195 0 48.566V19.245Z" fill="url(#j)" fill-opacity=".5"/></g><defs><radialGradient id="b" cx="0" cy="0" r="1" gradientUnits="userSpaceOnUse" gradientTransform="matrix(199.36404 75.22764 -13.62698 36.11344 301 -16.953)"><stop offset=".212" stop-color="#181118" stop-opacity=".53"/><stop offset="1"/></radialGradient><radialGradient id="c" cx="0" cy="0" r="1" gradientUnits="userSpaceOnUse" gradientTransform="rotate(3.495 -454.428 2193.874) scale(556.125 36.4463)"><stop stop-color="#1864B7"/><stop offset="1" stop-color="#173D66" stop-opacity=".56"/></radialGradient><radialGradient id="d" cx="0" cy="0" r="1" gradientUnits="userSpaceOnUse" gradientTransform="rotate(104.933 220.537 166.06) scale(91.016 869.792)"><stop stop-color="#8528FB"/><stop offset="1" stop-color="#56544A" stop-opacity=".12"/></radialGradient><radialGradient id="e" cx="0" cy="0" r="1" gradientUnits="userSpaceOnUse" gradientTransform="rotate(9.831 -125.862 628.962) scale(242.008 173.466)"><stop stop-color="#8371F3"/><stop offset="1" stop-color="#459CEC" stop-opacity="0"/></radialGradient><radialGradient id="g" cx="0" cy="0" r="1" gradientUnits="userSpaceOnUse" gradientTransform="matrix(199.36404 75.22764 -13.62698 36.11344 301 -21.19)"><stop offset=".212" stop-color="#181118" stop-opacity=".53"/><stop offset="1"/></radialGradient><radialGradient id="h" cx="0" cy="0" r="1" gradientUnits="userSpaceOnUse" gradientTransform="rotate(3.495 -384.977 2191.755) scale(556.125 36.4463)"><stop stop-color="#1864B7"/><stop offset="1" stop-color="#173D66" stop-opacity=".88"/></radialGradient><radialGradient id="i" cx="0" cy="0" r="1" gradientUnits="userSpaceOnUse" gradientTransform="rotate(104.933 222.165 163.94) scale(91.016 869.792)"><stop stop-color="#8528FB"/><stop offset="1" stop-color="#56544A" stop-opacity=".12"/></radialGradient><radialGradient id="j" cx="0" cy="0" r="1" gradientUnits="userSpaceOnUse" gradientTransform="rotate(9.831 -101.222 626.843) scale(242.008 173.466)"><stop stop-color="#8371F3"/><stop offset="1" stop-color="#459CEC" stop-opacity="0"/></radialGradient><filter id="a" x="0" y="4.238" width="688" height="67.811" filterUnits="userSpaceOnUse" color-interpolation-filters="sRGB"><feFlood flood-opacity="0" result="BackgroundImageFix"/><feBlend in="SourceGraphic" in2="BackgroundImageFix" result="shape"/><feColorMatrix in="SourceAlpha" values="0 0 0 0 0 0 0 0 0 0 0 0 0 0 0 0 0 0 127 0" result="hardAlpha"/><feOffset/><feGaussianBlur stdDeviation="6.014"/><feComposite in2="hardAlpha" operator="arithmetic" k2="-1" k3="1"/><feColorMatrix values="0 0 0 0 1 0 0 0 0 1 0 0 0 0 1 0 0 0 0.8 0"/><feBlend in2="shape" result="effect1_innerShadow_1_131"/></filter><filter id="f" x="0" y="0" width="688" height="67.811" filterUnits="userSpaceOnUse" color-interpolation-filters="sRGB"><feFlood flood-opacity="0" result="BackgroundImageFix"/><feBlend in="SourceGraphic" in2="BackgroundImageFix" result="shape"/><feColorMatrix in="SourceAlpha" values="0 0 0 0 0 0 0 0 0 0 0 0 0 0 0 0 0 0 127 0" result="hardAlpha"/><feOffset/><feGaussianBlur stdDeviation="18.042"/><feComposite in2="hardAlpha" operator="arithmetic" k2="-1" k3="1"/><feColorMatrix values="0 0 0 0 1 0 0 0 0 1 0 0 0 0 1 0 0 0 0.3 0"/><feBlend in2="shape" result="effect1_innerShadow_1_131"/></filter></defs></svg>