<svg width="80" height="80" viewBox="0 0 80 80" fill="none" xmlns="http://www.w3.org/2000/svg"><path d="M71.483 21.41H65.65c1.667-2 2.708-4.499 2.708-7.29A11.447 11.447 0 0 0 56.905 2.668c-6.998 0-13.162 3.707-16.66 9.204-3.5-5.497-9.663-9.204-16.66-9.204A11.447 11.447 0 0 0 12.13 14.12c0 2.79 1.041 5.29 2.708 7.289H9.006A5.208 5.208 0 0 0 3.8 26.616v10.413c0 2.499 1.791 4.498 4.165 4.998v28.322a5.208 5.208 0 0 0 5.207 5.207h54.146a5.208 5.208 0 0 0 5.206-5.207V42.027c2.374-.5 4.165-2.5 4.165-4.998V26.616a5.208 5.208 0 0 0-5.206-5.206ZM70.44 35.986H43.368v-8.33h27.073v8.33ZM56.905 8.914a5.208 5.208 0 0 1 5.206 5.207 5.208 5.208 0 0 1-5.206 5.206H43.743c1.416-5.956 6.79-10.413 13.162-10.413Zm-33.32 0c6.372 0 11.745 4.457 13.16 10.413h-13.16a5.208 5.208 0 0 1-5.207-5.206 5.208 5.208 0 0 1 5.206-5.207ZM10.047 27.657H37.12v8.33H10.048v-8.33Zm4.165 14.578H37.12v27.073H14.213V42.235Zm52.063 27.073H43.368V42.235h22.908v27.073Z" fill="#1448FF"/></svg>