<svg width="80" height="80" viewBox="0 0 80 80" fill="none" xmlns="http://www.w3.org/2000/svg"><g clip-path="url(#a)" fill="#15CDAC"><path d="M73.303 20.268c-.041-2.137-.08-4.156-.08-6.11a2.77 2.77 0 0 0-2.77-2.77C58.602 11.388 49.58 7.982 42.06.67a2.77 2.77 0 0 0-3.863 0c-7.52 7.311-16.54 10.717-28.388 10.717a2.77 2.77 0 0 0-2.771 2.77c0 1.954-.039 3.974-.08 6.111-.38 19.889-.9 47.127 32.263 58.622a2.768 2.768 0 0 0 1.815 0c33.165-11.495 32.645-38.734 32.266-58.623ZM40.13 73.333C11.688 63 12.119 40.368 12.5 20.375c.023-1.2.045-2.363.06-3.503 11.098-.468 19.973-3.831 27.57-10.45 7.597 6.619 16.473 9.982 27.572 10.45.015 1.14.037 2.302.06 3.501.382 19.994.811 42.628-27.632 52.96Z"/><path d="M49.671 29.84 36.298 43.212l-5.706-5.706a2.771 2.771 0 0 0-3.918 3.918l7.665 7.666c.541.54 1.25.811 1.96.811.708 0 1.418-.27 1.958-.811L53.59 33.758a2.77 2.77 0 1 0-3.918-3.918Z"/></g><defs><clipPath id="a"><path fill="#fff" transform="translate(.552 .08)" d="M0 0h79.157v79.157H0z"/></clipPath></defs></svg>